<mxfile host="app.diagrams.net" modified="2023-10-19T09:22:12.764Z" agent="Mozilla/5.0 (Windows NT 10.0; Win64; x64) AppleWebKit/537.36 (KHTML, like Gecko) Chrome/118.0.0.0 Safari/537.36 Edg/118.0.2088.46" etag="C6Hrtr6QEtsVtw1ZJmxr" version="22.0.4" type="github">
  <diagram id="C5RBs43oDa-KdzZeNtuy" name="Page-1">
    <mxGraphModel dx="1184" dy="1101" grid="1" gridSize="10" guides="1" tooltips="1" connect="1" arrows="1" fold="1" page="1" pageScale="1" pageWidth="827" pageHeight="1169" math="0" shadow="0">
      <root>
        <mxCell id="WIyWlLk6GJQsqaUBKTNV-0" />
        <mxCell id="WIyWlLk6GJQsqaUBKTNV-1" parent="WIyWlLk6GJQsqaUBKTNV-0" />
        <mxCell id="WIyWlLk6GJQsqaUBKTNV-2" value="" style="rounded=0;html=1;jettySize=auto;orthogonalLoop=1;fontSize=11;endArrow=block;endFill=0;endSize=8;strokeWidth=1;shadow=0;labelBackgroundColor=none;edgeStyle=orthogonalEdgeStyle;" parent="WIyWlLk6GJQsqaUBKTNV-1" source="WIyWlLk6GJQsqaUBKTNV-3" target="WIyWlLk6GJQsqaUBKTNV-6" edge="1">
          <mxGeometry relative="1" as="geometry" />
        </mxCell>
        <mxCell id="WIyWlLk6GJQsqaUBKTNV-3" value="输入一个十进制的数字" style="rounded=1;whiteSpace=wrap;html=1;fontSize=12;glass=0;strokeWidth=1;shadow=0;" parent="WIyWlLk6GJQsqaUBKTNV-1" vertex="1">
          <mxGeometry x="430" y="20" width="120" height="40" as="geometry" />
        </mxCell>
        <mxCell id="WIyWlLk6GJQsqaUBKTNV-4" value="Yes" style="rounded=0;html=1;jettySize=auto;orthogonalLoop=1;fontSize=11;endArrow=block;endFill=0;endSize=8;strokeWidth=1;shadow=0;labelBackgroundColor=none;edgeStyle=orthogonalEdgeStyle;" parent="WIyWlLk6GJQsqaUBKTNV-1" source="WIyWlLk6GJQsqaUBKTNV-6" target="WIyWlLk6GJQsqaUBKTNV-10" edge="1">
          <mxGeometry y="20" relative="1" as="geometry">
            <mxPoint as="offset" />
          </mxGeometry>
        </mxCell>
        <mxCell id="WIyWlLk6GJQsqaUBKTNV-5" value="No" style="edgeStyle=orthogonalEdgeStyle;rounded=0;html=1;jettySize=auto;orthogonalLoop=1;fontSize=11;endArrow=block;endFill=0;endSize=8;strokeWidth=1;shadow=0;labelBackgroundColor=none;" parent="WIyWlLk6GJQsqaUBKTNV-1" source="WIyWlLk6GJQsqaUBKTNV-6" target="WIyWlLk6GJQsqaUBKTNV-7" edge="1">
          <mxGeometry y="10" relative="1" as="geometry">
            <mxPoint as="offset" />
          </mxGeometry>
        </mxCell>
        <mxCell id="WIyWlLk6GJQsqaUBKTNV-6" value="是否包含小数点" style="rhombus;whiteSpace=wrap;html=1;shadow=0;fontFamily=Helvetica;fontSize=12;align=center;strokeWidth=1;spacing=6;spacingTop=-4;" parent="WIyWlLk6GJQsqaUBKTNV-1" vertex="1">
          <mxGeometry x="440" y="110" width="100" height="80" as="geometry" />
        </mxCell>
        <mxCell id="WIyWlLk6GJQsqaUBKTNV-8" value="No" style="rounded=0;html=1;jettySize=auto;orthogonalLoop=1;fontSize=11;endArrow=block;endFill=0;endSize=8;strokeWidth=1;shadow=0;labelBackgroundColor=none;edgeStyle=orthogonalEdgeStyle;" parent="WIyWlLk6GJQsqaUBKTNV-1" source="WIyWlLk6GJQsqaUBKTNV-10" target="WIyWlLk6GJQsqaUBKTNV-11" edge="1">
          <mxGeometry x="0.3333" y="20" relative="1" as="geometry">
            <mxPoint as="offset" />
          </mxGeometry>
        </mxCell>
        <mxCell id="WIyWlLk6GJQsqaUBKTNV-9" value="Yes" style="edgeStyle=orthogonalEdgeStyle;rounded=0;html=1;jettySize=auto;orthogonalLoop=1;fontSize=11;endArrow=block;endFill=0;endSize=8;strokeWidth=1;shadow=0;labelBackgroundColor=none;" parent="WIyWlLk6GJQsqaUBKTNV-1" source="WIyWlLk6GJQsqaUBKTNV-10" target="WIyWlLk6GJQsqaUBKTNV-12" edge="1">
          <mxGeometry y="10" relative="1" as="geometry">
            <mxPoint as="offset" />
          </mxGeometry>
        </mxCell>
        <mxCell id="WIyWlLk6GJQsqaUBKTNV-10" value="是否范围为（-1,1）" style="rhombus;whiteSpace=wrap;html=1;shadow=0;fontFamily=Helvetica;fontSize=12;align=center;strokeWidth=1;spacing=6;spacingTop=-4;" parent="WIyWlLk6GJQsqaUBKTNV-1" vertex="1">
          <mxGeometry x="190" y="110" width="100" height="80" as="geometry" />
        </mxCell>
        <mxCell id="a-_6J133EqKh91ZIbbef-30" style="edgeStyle=orthogonalEdgeStyle;rounded=0;orthogonalLoop=1;jettySize=auto;html=1;entryX=0;entryY=0.5;entryDx=0;entryDy=0;" parent="WIyWlLk6GJQsqaUBKTNV-1" source="WIyWlLk6GJQsqaUBKTNV-11" target="WIyWlLk6GJQsqaUBKTNV-7" edge="1">
          <mxGeometry relative="1" as="geometry" />
        </mxCell>
        <mxCell id="WIyWlLk6GJQsqaUBKTNV-11" value="分离小数部分和整数部分分别做计算" style="rounded=1;whiteSpace=wrap;html=1;fontSize=12;glass=0;strokeWidth=1;shadow=0;" parent="WIyWlLk6GJQsqaUBKTNV-1" vertex="1">
          <mxGeometry x="180" y="340" width="120" height="40" as="geometry" />
        </mxCell>
        <mxCell id="a-_6J133EqKh91ZIbbef-33" style="edgeStyle=orthogonalEdgeStyle;rounded=0;orthogonalLoop=1;jettySize=auto;html=1;exitX=0.75;exitY=1;exitDx=0;exitDy=0;" parent="WIyWlLk6GJQsqaUBKTNV-1" source="WIyWlLk6GJQsqaUBKTNV-12" edge="1">
          <mxGeometry relative="1" as="geometry">
            <mxPoint x="430" y="360" as="targetPoint" />
            <Array as="points">
              <mxPoint x="340" y="360" />
            </Array>
          </mxGeometry>
        </mxCell>
        <mxCell id="WIyWlLk6GJQsqaUBKTNV-12" value="Replace Bulb" style="rounded=1;whiteSpace=wrap;html=1;fontSize=12;glass=0;strokeWidth=1;shadow=0;" parent="WIyWlLk6GJQsqaUBKTNV-1" vertex="1">
          <mxGeometry x="250" y="230" width="120" height="40" as="geometry" />
        </mxCell>
        <mxCell id="Gen7DUi7adraW_FfG2y3-12" value="" style="edgeStyle=orthogonalEdgeStyle;rounded=0;orthogonalLoop=1;jettySize=auto;html=1;" edge="1" parent="WIyWlLk6GJQsqaUBKTNV-1" source="Gen7DUi7adraW_FfG2y3-0" target="Gen7DUi7adraW_FfG2y3-11">
          <mxGeometry relative="1" as="geometry" />
        </mxCell>
        <mxCell id="Gen7DUi7adraW_FfG2y3-0" value="补码转换" style="swimlane;whiteSpace=wrap;html=1;" vertex="1" parent="WIyWlLk6GJQsqaUBKTNV-1">
          <mxGeometry x="20" y="450" width="300" height="270" as="geometry" />
        </mxCell>
        <mxCell id="Gen7DUi7adraW_FfG2y3-1" value="" style="edgeStyle=orthogonalEdgeStyle;rounded=0;orthogonalLoop=1;jettySize=auto;html=1;" edge="1" parent="Gen7DUi7adraW_FfG2y3-0" source="Gen7DUi7adraW_FfG2y3-2" target="Gen7DUi7adraW_FfG2y3-7">
          <mxGeometry relative="1" as="geometry" />
        </mxCell>
        <mxCell id="Gen7DUi7adraW_FfG2y3-2" value="开始" style="rounded=0;whiteSpace=wrap;html=1;" vertex="1" parent="Gen7DUi7adraW_FfG2y3-0">
          <mxGeometry x="30" y="40" width="100" height="30" as="geometry" />
        </mxCell>
        <mxCell id="Gen7DUi7adraW_FfG2y3-3" value="" style="edgeStyle=orthogonalEdgeStyle;rounded=0;orthogonalLoop=1;jettySize=auto;html=1;" edge="1" parent="Gen7DUi7adraW_FfG2y3-0" source="Gen7DUi7adraW_FfG2y3-7" target="Gen7DUi7adraW_FfG2y3-8">
          <mxGeometry relative="1" as="geometry" />
        </mxCell>
        <mxCell id="Gen7DUi7adraW_FfG2y3-4" value="yes" style="edgeLabel;html=1;align=center;verticalAlign=middle;resizable=0;points=[];" vertex="1" connectable="0" parent="Gen7DUi7adraW_FfG2y3-3">
          <mxGeometry x="-0.2519" y="1" relative="1" as="geometry">
            <mxPoint x="9" y="2" as="offset" />
          </mxGeometry>
        </mxCell>
        <mxCell id="Gen7DUi7adraW_FfG2y3-5" value="" style="edgeStyle=orthogonalEdgeStyle;rounded=0;orthogonalLoop=1;jettySize=auto;html=1;" edge="1" parent="Gen7DUi7adraW_FfG2y3-0" source="Gen7DUi7adraW_FfG2y3-7" target="Gen7DUi7adraW_FfG2y3-9">
          <mxGeometry relative="1" as="geometry" />
        </mxCell>
        <mxCell id="Gen7DUi7adraW_FfG2y3-6" value="no" style="edgeLabel;html=1;align=center;verticalAlign=middle;resizable=0;points=[];" vertex="1" connectable="0" parent="Gen7DUi7adraW_FfG2y3-5">
          <mxGeometry x="-0.1222" relative="1" as="geometry">
            <mxPoint x="3" y="-10" as="offset" />
          </mxGeometry>
        </mxCell>
        <mxCell id="Gen7DUi7adraW_FfG2y3-7" value="是否为正数" style="rhombus;whiteSpace=wrap;html=1;rounded=0;" vertex="1" parent="Gen7DUi7adraW_FfG2y3-0">
          <mxGeometry x="40" y="90" width="80" height="80" as="geometry" />
        </mxCell>
        <mxCell id="Gen7DUi7adraW_FfG2y3-8" value="正数补码就是自己" style="whiteSpace=wrap;html=1;rounded=0;" vertex="1" parent="Gen7DUi7adraW_FfG2y3-0">
          <mxGeometry x="20" y="200" width="120" height="60" as="geometry" />
        </mxCell>
        <mxCell id="Gen7DUi7adraW_FfG2y3-9" value="反码的基础上数值位+1" style="rounded=0;whiteSpace=wrap;html=1;" vertex="1" parent="Gen7DUi7adraW_FfG2y3-0">
          <mxGeometry x="180" y="100" width="110" height="60" as="geometry" />
        </mxCell>
        <mxCell id="WIyWlLk6GJQsqaUBKTNV-7" value="转换成二进制并判断符号位" style="rounded=1;whiteSpace=wrap;html=1;fontSize=12;glass=0;strokeWidth=1;shadow=0;" parent="WIyWlLk6GJQsqaUBKTNV-1" vertex="1">
          <mxGeometry x="430" y="340" width="120" height="40" as="geometry" />
        </mxCell>
        <mxCell id="Gen7DUi7adraW_FfG2y3-14" style="edgeStyle=orthogonalEdgeStyle;rounded=0;orthogonalLoop=1;jettySize=auto;html=1;entryX=1;entryY=0.5;entryDx=0;entryDy=0;" edge="1" parent="WIyWlLk6GJQsqaUBKTNV-1" source="a-_6J133EqKh91ZIbbef-4" target="Gen7DUi7adraW_FfG2y3-0">
          <mxGeometry relative="1" as="geometry" />
        </mxCell>
        <mxCell id="a-_6J133EqKh91ZIbbef-4" value="反码转换" style="swimlane;whiteSpace=wrap;html=1;" parent="WIyWlLk6GJQsqaUBKTNV-1" vertex="1">
          <mxGeometry x="400" y="450" width="300" height="270" as="geometry" />
        </mxCell>
        <mxCell id="a-_6J133EqKh91ZIbbef-7" value="" style="edgeStyle=orthogonalEdgeStyle;rounded=0;orthogonalLoop=1;jettySize=auto;html=1;" parent="a-_6J133EqKh91ZIbbef-4" source="a-_6J133EqKh91ZIbbef-5" target="a-_6J133EqKh91ZIbbef-6" edge="1">
          <mxGeometry relative="1" as="geometry" />
        </mxCell>
        <mxCell id="a-_6J133EqKh91ZIbbef-5" value="开始" style="rounded=0;whiteSpace=wrap;html=1;" parent="a-_6J133EqKh91ZIbbef-4" vertex="1">
          <mxGeometry x="30" y="40" width="100" height="30" as="geometry" />
        </mxCell>
        <mxCell id="a-_6J133EqKh91ZIbbef-10" value="" style="edgeStyle=orthogonalEdgeStyle;rounded=0;orthogonalLoop=1;jettySize=auto;html=1;" parent="a-_6J133EqKh91ZIbbef-4" source="a-_6J133EqKh91ZIbbef-6" target="a-_6J133EqKh91ZIbbef-9" edge="1">
          <mxGeometry relative="1" as="geometry" />
        </mxCell>
        <mxCell id="a-_6J133EqKh91ZIbbef-11" value="yes" style="edgeLabel;html=1;align=center;verticalAlign=middle;resizable=0;points=[];" parent="a-_6J133EqKh91ZIbbef-10" vertex="1" connectable="0">
          <mxGeometry x="-0.2519" y="1" relative="1" as="geometry">
            <mxPoint x="9" y="2" as="offset" />
          </mxGeometry>
        </mxCell>
        <mxCell id="a-_6J133EqKh91ZIbbef-13" value="" style="edgeStyle=orthogonalEdgeStyle;rounded=0;orthogonalLoop=1;jettySize=auto;html=1;" parent="a-_6J133EqKh91ZIbbef-4" source="a-_6J133EqKh91ZIbbef-6" target="a-_6J133EqKh91ZIbbef-12" edge="1">
          <mxGeometry relative="1" as="geometry" />
        </mxCell>
        <mxCell id="a-_6J133EqKh91ZIbbef-14" value="no" style="edgeLabel;html=1;align=center;verticalAlign=middle;resizable=0;points=[];" parent="a-_6J133EqKh91ZIbbef-13" vertex="1" connectable="0">
          <mxGeometry x="-0.1222" relative="1" as="geometry">
            <mxPoint x="3" y="-10" as="offset" />
          </mxGeometry>
        </mxCell>
        <mxCell id="a-_6J133EqKh91ZIbbef-6" value="是否为正数" style="rhombus;whiteSpace=wrap;html=1;rounded=0;" parent="a-_6J133EqKh91ZIbbef-4" vertex="1">
          <mxGeometry x="40" y="90" width="80" height="80" as="geometry" />
        </mxCell>
        <mxCell id="a-_6J133EqKh91ZIbbef-9" value="正数反码就是自己" style="whiteSpace=wrap;html=1;rounded=0;" parent="a-_6J133EqKh91ZIbbef-4" vertex="1">
          <mxGeometry x="20" y="200" width="120" height="60" as="geometry" />
        </mxCell>
        <mxCell id="a-_6J133EqKh91ZIbbef-12" value="符号位不变，数值位按位取反" style="rounded=0;whiteSpace=wrap;html=1;" parent="a-_6J133EqKh91ZIbbef-4" vertex="1">
          <mxGeometry x="180" y="100" width="110" height="60" as="geometry" />
        </mxCell>
        <mxCell id="a-_6J133EqKh91ZIbbef-28" style="edgeStyle=orthogonalEdgeStyle;rounded=0;orthogonalLoop=1;jettySize=auto;html=1;exitX=0.5;exitY=1;exitDx=0;exitDy=0;entryX=0.463;entryY=0.001;entryDx=0;entryDy=0;entryPerimeter=0;" parent="WIyWlLk6GJQsqaUBKTNV-1" source="WIyWlLk6GJQsqaUBKTNV-7" target="a-_6J133EqKh91ZIbbef-4" edge="1">
          <mxGeometry relative="1" as="geometry">
            <Array as="points">
              <mxPoint x="539" y="380" />
            </Array>
          </mxGeometry>
        </mxCell>
        <mxCell id="Gen7DUi7adraW_FfG2y3-31" style="edgeStyle=orthogonalEdgeStyle;rounded=0;orthogonalLoop=1;jettySize=auto;html=1;" edge="1" parent="WIyWlLk6GJQsqaUBKTNV-1" source="Gen7DUi7adraW_FfG2y3-11">
          <mxGeometry relative="1" as="geometry">
            <mxPoint x="400" y="810" as="targetPoint" />
          </mxGeometry>
        </mxCell>
        <mxCell id="Gen7DUi7adraW_FfG2y3-11" value="移码：补码的基础上符号位取反" style="whiteSpace=wrap;html=1;fontStyle=1;startSize=23;" vertex="1" parent="WIyWlLk6GJQsqaUBKTNV-1">
          <mxGeometry x="110" y="780" width="120" height="60" as="geometry" />
        </mxCell>
        <mxCell id="Gen7DUi7adraW_FfG2y3-33" value="" style="edgeStyle=orthogonalEdgeStyle;rounded=0;orthogonalLoop=1;jettySize=auto;html=1;" edge="1" parent="WIyWlLk6GJQsqaUBKTNV-1" source="Gen7DUi7adraW_FfG2y3-15" target="Gen7DUi7adraW_FfG2y3-32">
          <mxGeometry relative="1" as="geometry" />
        </mxCell>
        <mxCell id="Gen7DUi7adraW_FfG2y3-15" value="IEEE754单精度浮点数" style="swimlane;whiteSpace=wrap;html=1;" vertex="1" parent="WIyWlLk6GJQsqaUBKTNV-1">
          <mxGeometry x="400" y="740" width="300" height="490" as="geometry" />
        </mxCell>
        <mxCell id="Gen7DUi7adraW_FfG2y3-34" style="edgeStyle=orthogonalEdgeStyle;rounded=0;orthogonalLoop=1;jettySize=auto;html=1;exitX=0.5;exitY=1;exitDx=0;exitDy=0;entryX=0.5;entryY=0;entryDx=0;entryDy=0;" edge="1" parent="Gen7DUi7adraW_FfG2y3-15" source="Gen7DUi7adraW_FfG2y3-17" target="Gen7DUi7adraW_FfG2y3-27">
          <mxGeometry relative="1" as="geometry" />
        </mxCell>
        <mxCell id="Gen7DUi7adraW_FfG2y3-17" value="得到原码" style="rounded=0;whiteSpace=wrap;html=1;" vertex="1" parent="Gen7DUi7adraW_FfG2y3-15">
          <mxGeometry x="90" y="30" width="100" height="30" as="geometry" />
        </mxCell>
        <mxCell id="Gen7DUi7adraW_FfG2y3-27" value="求阶码：&lt;br&gt;在 IEEE 754 浮点数标准中，阶码是用移码表示的，移码的定义：移码 = 真值 + 偏置值（127）" style="rounded=0;whiteSpace=wrap;html=1;" vertex="1" parent="Gen7DUi7adraW_FfG2y3-15">
          <mxGeometry x="42.5" y="90" width="195" height="60" as="geometry" />
        </mxCell>
        <mxCell id="Gen7DUi7adraW_FfG2y3-36" style="edgeStyle=orthogonalEdgeStyle;rounded=0;orthogonalLoop=1;jettySize=auto;html=1;exitX=0.5;exitY=1;exitDx=0;exitDy=0;" edge="1" parent="Gen7DUi7adraW_FfG2y3-15" source="Gen7DUi7adraW_FfG2y3-28" target="Gen7DUi7adraW_FfG2y3-29">
          <mxGeometry relative="1" as="geometry" />
        </mxCell>
        <mxCell id="Gen7DUi7adraW_FfG2y3-28" value="阶前面补齐0凑到8位" style="rounded=0;whiteSpace=wrap;html=1;" vertex="1" parent="Gen7DUi7adraW_FfG2y3-15">
          <mxGeometry x="80" y="170" width="110" height="40" as="geometry" />
        </mxCell>
        <mxCell id="Gen7DUi7adraW_FfG2y3-29" value="计算尾数" style="rounded=0;whiteSpace=wrap;html=1;" vertex="1" parent="Gen7DUi7adraW_FfG2y3-15">
          <mxGeometry x="75" y="280" width="110" height="40" as="geometry" />
        </mxCell>
        <mxCell id="Gen7DUi7adraW_FfG2y3-30" value="组合（符号位+阶码+尾数） 并输出" style="rounded=0;whiteSpace=wrap;html=1;" vertex="1" parent="Gen7DUi7adraW_FfG2y3-15">
          <mxGeometry x="60" y="380" width="160" height="70" as="geometry" />
        </mxCell>
        <mxCell id="Gen7DUi7adraW_FfG2y3-35" style="edgeStyle=orthogonalEdgeStyle;rounded=0;orthogonalLoop=1;jettySize=auto;html=1;exitX=0.5;exitY=1;exitDx=0;exitDy=0;entryX=0.582;entryY=0.075;entryDx=0;entryDy=0;entryPerimeter=0;" edge="1" parent="Gen7DUi7adraW_FfG2y3-15" source="Gen7DUi7adraW_FfG2y3-27" target="Gen7DUi7adraW_FfG2y3-28">
          <mxGeometry relative="1" as="geometry" />
        </mxCell>
        <mxCell id="Gen7DUi7adraW_FfG2y3-37" style="edgeStyle=orthogonalEdgeStyle;rounded=0;orthogonalLoop=1;jettySize=auto;html=1;exitX=0.5;exitY=1;exitDx=0;exitDy=0;entryX=0.431;entryY=-0.057;entryDx=0;entryDy=0;entryPerimeter=0;" edge="1" parent="Gen7DUi7adraW_FfG2y3-15" source="Gen7DUi7adraW_FfG2y3-29" target="Gen7DUi7adraW_FfG2y3-30">
          <mxGeometry relative="1" as="geometry" />
        </mxCell>
        <mxCell id="Gen7DUi7adraW_FfG2y3-32" value="运行结束" style="whiteSpace=wrap;html=1;fontStyle=1;startSize=23;" vertex="1" parent="WIyWlLk6GJQsqaUBKTNV-1">
          <mxGeometry x="490" y="1280" width="120" height="60" as="geometry" />
        </mxCell>
      </root>
    </mxGraphModel>
  </diagram>
</mxfile>
